<svg id="Layer_1" data-name="Layer 1" xmlns="http://www.w3.org/2000/svg" viewBox="0 0 841.89 595.28"><defs><style>.cls-1{fill:#005b5e;}</style></defs><path class="cls-1" d="M300.53,343.67a23.3,23.3,0,0,1,9.45,2h-7.12a22.68,22.68,0,0,0-4.66,0h-7.12A23.3,23.3,0,0,1,300.53,343.67Zm13.52-.29a27.25,27.25,0,0,0-30.4,2.27h3.18a25.44,25.44,0,0,1,27.39,0h2.43a25.93,25.93,0,0,0-2.34-1.58Zm-60-1.58a27.54,27.54,0,0,0-11.46-2.47h-.65l-1.1,2.83c.58,0,1.16-.06,1.75-.06a24.9,24.9,0,0,1,10.48,2.3l.16-.43a23.86,23.86,0,0,1,3.06,1.67h3.18a26.92,26.92,0,0,0-5.58-3.41Zm25.11,3.85h1.39A29.3,29.3,0,0,1,313,340.54l-.23-.62a29.64,29.64,0,0,1,8.42,5.73h1.34c-.11-.09-.21-.19-.32-.3l-.17-.17a30.61,30.61,0,0,0-9.73-6.47l-.22-.59A31.2,31.2,0,0,0,278.53,345h0a8,8,0,0,1-.69.62Zm-24.56-5.31a29.2,29.2,0,0,1,8,5.31h2.71a8,8,0,0,1-.69-.62h0a31.1,31.1,0,0,0-9.33-6.43l.16-.44a31.41,31.41,0,0,0-12-2.7l-1.08,2.78h.22a28.72,28.72,0,0,1,11.85,2.53ZM306,327.22a8.13,8.13,0,0,1-1.46,1.15c.94.09,1.86.22,2.78.38l.11-.1.15.15h0l-.15-.15.78-.76.18.47a30.49,30.49,0,0,1,10.89-6.65l.34.87a29.72,29.72,0,0,0-10.41,6.28l-.47.44.09.22.59.14c.8.18,1.58.39,2.31.62l.24.07.19-.16a26.31,26.31,0,0,1,8.53-4.84l.33.84a25.65,25.65,0,0,0-7.36,4l-.66.52.79.29c.75.27,1.48.57,2.18.87l.24.11.21-.15a23.12,23.12,0,0,1,2.75-1.63,23.36,23.36,0,0,1,2.92-1.22h0l.34.87h0a22,22,0,0,0-4.55,2.14l-.7.43.74.38c.68.34,1.36.72,2,1.12l.22.13.23-.12a17.52,17.52,0,0,1,3.09-1.32l.33.86a18.64,18.64,0,0,0-2,.78l-.75.35.69.46c.63.42,1.27.88,1.91,1.36l.21.16.24-.09c.25-.1.51-.18.76-.26l.34.86-.5.14.66.57.17.15.75,1.92h0a37.27,37.27,0,0,0-13.57-8.25c-.39-.14-.77-.26-1.16-.38-.78-.24-1.57-.46-2.37-.65l.2.53a37.11,37.11,0,0,0-34.95,9.66l-.11.11a4,4,0,0,1-5.6,0l-.2-.21a37.21,37.21,0,0,0-11.22-7.59l-.16.44a36.44,36.44,0,0,0-11.83-2.92l2.46-6.32a35.11,35.11,0,0,1,15.88-8.21l-.18.52a35.31,35.31,0,0,1,8-.91,34.8,34.8,0,0,1,24.74,10.24h0a6,6,0,0,0,8.47,0h0c.66-.66,1.35-1.29,2.06-1.9l.17.46a34.26,34.26,0,0,1,11-6.37l.33.87a33.41,33.41,0,0,0-10.94,6.43l.18.46c-.5.44-1,.9-1.45,1.37Zm-30.68,10.22a13.87,13.87,0,0,0-7.56,0c.63.54,1.24,1.09,1.83,1.67a12.08,12.08,0,0,1,1.9-.16,11.21,11.21,0,0,1,2,.18C274.1,338.53,274.7,338,275.32,337.44Zm3.64-2.76a17.65,17.65,0,0,0-14.86,0c.66.44,1.3.9,1.94,1.38a15.75,15.75,0,0,1,11,0C277.67,335.58,278.31,335.12,279,334.68Zm3.89-2.29a21.54,21.54,0,0,0-22.66,0q1.05.54,2.07,1.14a19.51,19.51,0,0,1,18.53,0C281.47,333.13,282.16,332.75,282.85,332.39ZM249.5,328a31.33,31.33,0,0,1,12.58-7.5l-.2.55a31.22,31.22,0,0,1,31.6,7.61h0l.13.12c.92-.16,1.85-.29,2.78-.39a7.8,7.8,0,0,1-1.48-1.16h0a32.88,32.88,0,0,0-23.42-9.71,33.34,33.34,0,0,0-8.72,1.16l-.2.54a32.35,32.35,0,0,0-14.08,8.24l-.1.09,0,.06-.28.27h0l-.2.18,1.38.21.08-.07.18-.19ZM260,325.93a27.25,27.25,0,0,1,29,3.93c.77-.23,1.54-.44,2.33-.63a29.29,29.29,0,0,0-30.4-5.91l-.22.59a28.59,28.59,0,0,0-8.25,5l1.27.35a27.31,27.31,0,0,1,6.44-4Zm-1.24,3.27c-.62.37-1.24.77-1.83,1.2l1.19.49-.16.44.22.09a23.37,23.37,0,0,1,26.59,0c.72-.32,1.46-.62,2.2-.89a25.38,25.38,0,0,0-27.95-2.05ZM256,336.7a33.11,33.11,0,0,1,10,6.9h0a7.75,7.75,0,0,0,3.61,2h3.86a7.75,7.75,0,0,0,3.61-2h0a33.18,33.18,0,0,1,34-8l-.22-.56a33.39,33.39,0,0,1,13.37,8.21l.08.08a7.34,7.34,0,0,0,4.1,2l-.06-.16-.34-.86a6.29,6.29,0,0,1-2.43-1.13,5.6,5.6,0,0,1-.69-.6l-.19-.18A34.3,34.3,0,0,0,310.5,334l-.21-.55a35.29,35.29,0,0,0-9.76-1.37,34.78,34.78,0,0,0-24.74,10.24h0a6,6,0,0,1-8.46,0h0a35,35,0,0,0-10.7-7.32l.16-.44a35.44,35.44,0,0,0-11.86-2.87l-1.06,2.73a32.51,32.51,0,0,1,11.94,2.75Zm-15.58,6.61-.92,2.34H252.6l.08-.21a23.73,23.73,0,0,0-10.09-2.23C241.85,343.21,241.12,343.24,240.4,343.31Zm76.41-28a37.05,37.05,0,0,0-11,6.2l.17.46c-.91.74-1.78,1.53-2.63,2.37l-.1.1a3.95,3.95,0,0,1-5.61,0l-.2-.2a36.74,36.74,0,0,0-26-10.63,37.47,37.47,0,0,0-7.2.69l-.17.51a36,36,0,0,0-15.47,7.28l28.82-74h13.25Zm-32.54-28.66a9.12,9.12,0,1,0,8.82,8.82A9.12,9.12,0,0,0,284.27,286.68Z"/><path class="cls-1" d="M518.31,253.15a4.05,4.05,0,0,1,4.16-4.4c2.46,0,4.1,1.78,4.1,4.4s-1.65,4.41-4.16,4.41S518.31,255.78,518.31,253.15Zm6.93,0v-.07c0-2-1.06-3.21-2.78-3.21s-2.82,1.2-2.82,3.21v.07c0,2,1.06,3.22,2.78,3.22S525.24,255.2,525.24,253.18Z"/><path class="cls-1" d="M527.86,248.77h1.27v8.63h-1.27Z"/><path class="cls-1" d="M530.72,248.77H532v8.63h-1.27Z"/><path class="cls-1" d="M533.18,256.3l1.09-.57a2,2,0,0,0,1.64.8c.68,0,1.09-.3,1.09-.8s-.71-.64-1.66-.85c-1.1-.23-2.08-.61-2.08-1.78a2.07,2.07,0,0,1,2.28-1.87,3.17,3.17,0,0,1,2.61,1.29l-1.09.54a1.8,1.8,0,0,0-1.52-.81c-.66,0-1.08.31-1.08.77s.41.59,1.51.81,2.24.61,2.24,1.81a2.1,2.1,0,0,1-2.35,1.93A3.22,3.22,0,0,1,533.18,256.3Z"/><path class="cls-1" d="M539,254.37a2.93,2.93,0,0,1,3-3.11,2.63,2.63,0,0,1,2.69,1.94l-1.21.37a1.45,1.45,0,0,0-1.51-1.25c-1,0-1.7.83-1.7,2v0c0,1.19.61,2,1.66,2a1.5,1.5,0,0,0,1.61-1.32l1.2.38a2.73,2.73,0,0,1-2.78,2A2.89,2.89,0,0,1,539,254.37Z"/><path class="cls-1" d="M545.47,254.39a3,3,0,1,1,3,3.12A2.92,2.92,0,0,1,545.47,254.39Zm4.79,0v-.05c0-1.27-.67-2.06-1.75-2.06s-1.77.79-1.77,2.06v.05c0,1.24.67,2,1.74,2A1.78,1.78,0,0,0,550.26,254.43Z"/><path class="cls-1" d="M552.74,249.05h1.35v1.33h-1.35Zm0,2.31H554v6h-1.26Z"/><path class="cls-1" d="M555.64,248.77h1.27v8.63h-1.27Z"/><path class="cls-1" d="M520.88,264.33h-2.7v-1.14h6.7v1.14h-2.72v7.37h-1.28Z"/><path class="cls-1" d="M524.23,268.71a2.94,2.94,0,0,1,2.95-3.16c1.79,0,2.85,1.19,2.85,3.1v.46h-4.55a1.65,1.65,0,0,0,1.76,1.66,1.63,1.63,0,0,0,1.7-1.09l1.11.44a2.81,2.81,0,0,1-2.81,1.68A2.85,2.85,0,0,1,524.23,268.71Zm4.5-.55a1.47,1.47,0,0,0-1.57-1.59,1.67,1.67,0,0,0-1.7,1.59Z"/><path class="cls-1" d="M531.26,263.34h1.36v1.34h-1.36Zm0,2.31h1.26v6.05H531.3Z"/><path class="cls-1" d="M533.82,268.66a2.93,2.93,0,0,1,3-3.11,2.64,2.64,0,0,1,2.69,1.94l-1.21.38a1.45,1.45,0,0,0-1.51-1.26c-1,0-1.7.83-1.7,2v.05c0,1.19.61,2,1.66,2a1.48,1.48,0,0,0,1.6-1.31l1.21.37a2.72,2.72,0,0,1-2.78,2A2.89,2.89,0,0,1,533.82,268.66Z"/><path class="cls-1" d="M540.66,265.65h1.25v1.14a1.87,1.87,0,0,1,1.86-1.27c1.31,0,2.1.89,2.1,2.5v3.68H544.6v-3.62c0-.94-.39-1.44-1.21-1.44s-1.48.78-1.48,2.16v2.9h-1.25Z"/><path class="cls-1" d="M547,268.71a2.94,2.94,0,0,1,3-3.16c1.78,0,2.84,1.19,2.84,3.1v.46h-4.54a1.81,1.81,0,0,0,3.46.57l1.11.44a3.08,3.08,0,0,1-5.83-1.41Zm4.51-.55a1.48,1.48,0,0,0-1.58-1.59,1.68,1.68,0,0,0-1.7,1.59Z"/><path class="cls-1" d="M553.75,268.69a3,3,0,1,1,3,3.11A2.92,2.92,0,0,1,553.75,268.69Zm4.79,0v-.05c0-1.27-.68-2.06-1.76-2.06s-1.76.79-1.76,2.06v.05c0,1.25.66,2,1.74,2A1.78,1.78,0,0,0,558.54,268.72Z"/><path class="cls-1" d="M561.05,263.06h1.27v8.64h-1.27Z"/><path class="cls-1" d="M563.59,270.11c0-1.36,1-1.67,2.35-2,1-.22,1.65-.28,1.78-.62v-.09c0-.5-.37-.88-1.29-.88s-1.38.41-1.44,1.09v.07h-1.26c0-1.35,1.11-2.17,2.71-2.17s2.47.69,2.47,2.23v3l0,.94h-1.22v-.91a2.25,2.25,0,0,1-2,1.06C564.38,271.85,563.59,271.14,563.59,270.11Zm4.13-.85v-.74a5.49,5.49,0,0,1-1.6.5c-.69.18-1.25.4-1.25,1s.37.83,1,.83A1.68,1.68,0,0,0,567.72,269.26Z"/><path class="cls-1" d="M570.43,265.65h1.26v6.05h-1.26Zm.75-2.77h1.31V263l-1.31,1.75h-.68Z"/><path class="cls-1" d="M573,268.69a3,3,0,1,1,3,3.11A2.92,2.92,0,0,1,573,268.69Zm4.79,0v-.05c0-1.27-.68-2.06-1.76-2.06s-1.76.79-1.76,2.06v.05c0,1.25.66,2,1.74,2A1.78,1.78,0,0,0,577.74,268.72Z"/><path class="cls-1" d="M579.9,268.66a2.93,2.93,0,0,1,3-3.11,2.64,2.64,0,0,1,2.69,1.94l-1.2.38a1.46,1.46,0,0,0-1.52-1.26c-1,0-1.7.83-1.7,2v.05c0,1.19.62,2,1.67,2a1.49,1.49,0,0,0,1.6-1.31l1.2.37a2.72,2.72,0,0,1-2.78,2A2.9,2.9,0,0,1,579.9,268.66Z"/><path class="cls-1" d="M586.74,263.06H588v3.78a1.82,1.82,0,0,1,1.85-1.29c1.3,0,2.1.86,2.1,2.47v3.68h-1.27v-3.62c0-.94-.4-1.44-1.22-1.44s-1.46.78-1.46,2.16v2.9h-1.23Z"/><path class="cls-1" d="M593.68,270.18v-3.45h-1v-1.08h1v-1.18l1.22-.75v1.93h1.31v1.08H594.9V270c0,.38.15.56.54.56h.72v1.11h-1.08C594,271.64,593.7,271.14,593.68,270.18Z"/><path class="cls-1" d="M597.07,270.11c0-1.36,1-1.67,2.35-2,1-.22,1.66-.28,1.78-.62v-.09c0-.5-.37-.88-1.29-.88s-1.38.41-1.43,1.09v.07h-1.27c0-1.35,1.11-2.17,2.71-2.17s2.47.69,2.47,2.23v3l0,.94h-1.22v-.91a2.24,2.24,0,0,1-2,1.06C597.86,271.85,597.07,271.14,597.07,270.11Zm4.13-.85v-.74a5.49,5.49,0,0,1-1.6.5c-.69.18-1.25.4-1.25,1s.37.83,1,.83A1.68,1.68,0,0,0,601.2,269.26Z"/><path class="cls-1" d="M518.26,284.4c0-1.36,1-1.67,2.35-2,1-.22,1.66-.28,1.78-.62v-.09c0-.5-.37-.88-1.29-.88s-1.38.41-1.43,1.09V282H518.4c0-1.36,1.11-2.18,2.71-2.18s2.48.69,2.48,2.23V286h-1.22v-.91a2.23,2.23,0,0,1-2,1.06C519.05,286.14,518.26,285.44,518.26,284.4Zm4.13-.85v-.74a5.2,5.2,0,0,1-1.6.5c-.69.18-1.25.4-1.25,1s.37.83,1,.83A1.67,1.67,0,0,0,522.39,283.55Z"/><path class="cls-1" d="M525.1,279.94h1.25v1.14a1.87,1.87,0,0,1,1.86-1.27c1.31,0,2.1.89,2.1,2.5V286H529v-3.62c0-.94-.39-1.44-1.21-1.44s-1.48.78-1.48,2.16V286H525.1Z"/><path class="cls-1" d="M537.12,277.48h1.5l3.11,8.51h-1.35l-.89-2.48h-3.33l-.92,2.48h-1.32Zm2,4.91-1.26-3.51-1.29,3.51Z"/><path class="cls-1" d="M542.73,284.48V281h-1v-1.08h1v-1.18L544,278v1.93h1.31V281H544v3.3c0,.39.15.57.54.57h.72V286h-1.08C543,285.94,542.75,285.44,542.73,284.48Z"/><path class="cls-1" d="M546.51,277.35h1.27V286h-1.27Z"/><path class="cls-1" d="M549.05,284.4c0-1.36,1-1.67,2.35-2,1-.22,1.66-.28,1.79-.62v-.09c0-.5-.38-.88-1.3-.88s-1.38.41-1.43,1.09V282h-1.27c0-1.36,1.11-2.18,2.71-2.18s2.48.69,2.48,2.23V286h-1.22v-.91a2.23,2.23,0,0,1-2,1.06C549.84,286.14,549.05,285.44,549.05,284.4Zm4.14-.85v-.74a5.36,5.36,0,0,1-1.61.5c-.69.18-1.25.4-1.25,1s.37.83,1,.83A1.69,1.69,0,0,0,553.19,283.55Z"/><path class="cls-1" d="M555.89,279.94h1.25v1.14a1.87,1.87,0,0,1,1.86-1.27c1.31,0,2.1.89,2.1,2.5V286h-1.27v-3.62c0-.94-.39-1.44-1.21-1.44s-1.48.78-1.48,2.16V286h-1.25Z"/><path class="cls-1" d="M562.87,284.48V281h-1v-1.08h1v-1.18l1.21-.75v1.93h1.31V281h-1.31v3.3c0,.39.16.57.54.57h.72V286h-1.08C563.16,285.94,562.88,285.44,562.87,284.48Z"/><path class="cls-1" d="M566.25,284.4c0-1.36,1-1.67,2.36-2,1-.22,1.65-.28,1.78-.62v-.09c0-.5-.37-.88-1.3-.88s-1.38.41-1.43,1.09V282h-1.27c0-1.36,1.11-2.18,2.72-2.18s2.47.69,2.47,2.23V286h-1.22v-.91a2.23,2.23,0,0,1-2,1.06C567,286.14,566.25,285.44,566.25,284.4Zm4.14-.85v-.74a5.29,5.29,0,0,1-1.6.5c-.7.18-1.26.4-1.26,1s.37.83,1,.83A1.69,1.69,0,0,0,570.39,283.55Z"/><path class="cls-1" d="M573.05,277.64h1.36V279h-1.36Zm0,2.3h1.27V286h-1.27Z"/><path class="cls-1" d="M575.93,286.09h1.26c0,.93.39,1.32,1.46,1.32s1.69-.46,1.69-1.64v-.91a2.3,2.3,0,0,1-2,1,2.7,2.7,0,0,1-2.73-3h0a2.74,2.74,0,0,1,2.73-3.05,2.31,2.31,0,0,1,1.95,1v-.83h1.27v5.55c0,2-.9,3-2.87,3S575.93,287.68,575.93,286.09Zm4.42-3.23v-.1a1.67,1.67,0,0,0-1.7-1.88,1.7,1.7,0,0,0-1.72,1.93v.1a1.66,1.66,0,0,0,1.72,1.89A1.72,1.72,0,0,0,580.35,282.86Z"/><path class="cls-1" d="M583.13,277.35h1.23v3.78a1.82,1.82,0,0,1,1.84-1.29c1.31,0,2.11.86,2.11,2.47V286H587v-3.62c0-.94-.4-1.44-1.22-1.44s-1.46.78-1.46,2.16V286h-1.23Z"/><path class="cls-1" d="M521.32,306.06h1.5l3.11,8.51h-1.36l-.88-2.47h-3.33l-.92,2.47h-1.32Zm2,4.91L522,307.46l-1.3,3.51Z"/><path class="cls-1" d="M526.93,313.06V309.6h-1v-1.08h1v-1.18l1.22-.75v1.93h1.3v1.08h-1.3v3.3c0,.39.15.57.53.57h.72v1.1h-1.07C527.22,314.52,526.94,314,526.93,313.06Z"/><path class="cls-1" d="M530.71,305.94H532v8.63h-1.27Z"/><path class="cls-1" d="M533.24,313c0-1.36,1-1.66,2.36-2,1-.22,1.65-.28,1.78-.61v-.09c0-.5-.37-.89-1.29-.89s-1.39.41-1.44,1.09v.08h-1.27c0-1.36,1.12-2.18,2.72-2.18s2.47.69,2.47,2.23v3.92h-1.21v-.91a2.23,2.23,0,0,1-2,1.06C534,314.72,533.24,314,533.24,313Zm4.14-.84v-.75a5.2,5.2,0,0,1-1.6.5c-.69.18-1.26.4-1.26,1s.38.83,1,.83A1.67,1.67,0,0,0,537.38,312.14Z"/><path class="cls-1" d="M540.08,308.52h1.26v1.14a1.87,1.87,0,0,1,1.86-1.27c1.3,0,2.1.89,2.1,2.5v3.68H544V311c0-.95-.4-1.45-1.22-1.45s-1.47.78-1.47,2.16v2.9h-1.26Z"/><path class="cls-1" d="M547.06,313.06V309.6h-1v-1.08h1v-1.18l1.22-.75v1.93h1.31v1.08h-1.31v3.3c0,.39.15.57.54.57h.71v1.1h-1.07C547.36,314.52,547.08,314,547.06,313.06Z"/><path class="cls-1" d="M550.8,306.22h1.36v1.33H550.8Zm0,2.3h1.27v6.05h-1.27Z"/><path class="cls-1" d="M553.36,311.53a2.94,2.94,0,0,1,3-3.11,2.63,2.63,0,0,1,2.69,1.95l-1.2.37a1.46,1.46,0,0,0-1.51-1.26c-1.05,0-1.71.84-1.71,2v.05c0,1.19.62,2,1.67,2a1.49,1.49,0,0,0,1.6-1.32l1.2.37a2.7,2.7,0,0,1-2.78,2A2.89,2.89,0,0,1,553.36,311.53Z"/><path class="cls-1" d="M520.88,321.5h-2.7v-1.14h6.7v1.14h-2.72v7.36h-1.28Z"/><path class="cls-1" d="M524.23,325.88a3,3,0,0,1,2.95-3.17c1.79,0,2.85,1.19,2.85,3.1v.46h-4.55a1.66,1.66,0,0,0,1.76,1.67,1.63,1.63,0,0,0,1.7-1.09l1.11.43a2.8,2.8,0,0,1-2.81,1.68A2.85,2.85,0,0,1,524.23,325.88Zm4.5-.56a1.47,1.47,0,0,0-1.57-1.58,1.66,1.66,0,0,0-1.7,1.58Z"/><path class="cls-1" d="M531,325.82a2.94,2.94,0,0,1,3-3.11,2.63,2.63,0,0,1,2.69,2l-1.2.37a1.45,1.45,0,0,0-1.51-1.25c-1.05,0-1.71.83-1.71,2v.05c0,1.19.62,2,1.67,2a1.49,1.49,0,0,0,1.6-1.32l1.2.37a2.7,2.7,0,0,1-2.78,2A2.88,2.88,0,0,1,531,325.82Z"/><path class="cls-1" d="M537.82,320.23h1.23V324a1.8,1.8,0,0,1,1.84-1.3c1.31,0,2.1.86,2.1,2.47v3.68h-1.27v-3.61c0-.95-.39-1.45-1.21-1.45s-1.46.78-1.46,2.17v2.89h-1.23Z"/><path class="cls-1" d="M544.48,322.81h1.25V324a1.87,1.87,0,0,1,1.86-1.26c1.3,0,2.1.88,2.1,2.49v3.68h-1.27v-3.61c0-.95-.4-1.45-1.22-1.45s-1.47.78-1.47,2.17v2.89h-1.25Z"/><path class="cls-1" d="M550.83,325.85a3,3,0,1,1,3,3.11A2.92,2.92,0,0,1,550.83,325.85Zm4.79,0v-.05c0-1.27-.68-2.06-1.76-2.06s-1.76.79-1.76,2.06v.05c0,1.24.66,2,1.74,2A1.78,1.78,0,0,0,555.62,325.89Z"/><path class="cls-1" d="M558.13,320.23h1.27v8.63h-1.27Z"/><path class="cls-1" d="M560.64,325.85a3,3,0,1,1,3,3.11A2.92,2.92,0,0,1,560.64,325.85Zm4.79,0v-.05c0-1.27-.68-2.06-1.75-2.06s-1.77.79-1.77,2.06v.05c0,1.24.66,2,1.74,2A1.78,1.78,0,0,0,565.43,325.89Z"/><path class="cls-1" d="M567.91,329h1.26c0,.94.4,1.32,1.46,1.32,1.22,0,1.69-.46,1.69-1.64v-.91a2.3,2.3,0,0,1-2,1,2.7,2.7,0,0,1-2.73-3v0a2.73,2.73,0,0,1,2.73-3,2.27,2.27,0,0,1,1.95,1v-.84h1.27v5.55c0,2-.9,3-2.87,3S567.91,330.55,567.91,329Zm4.42-3.23v-.1a1.67,1.67,0,0,0-1.7-1.88,1.7,1.7,0,0,0-1.72,1.93v.11a1.66,1.66,0,0,0,1.72,1.88A1.72,1.72,0,0,0,572.33,325.73Z"/><path class="cls-1" d="M575.07,320.51h1.36v1.33h-1.36Zm0,2.3h1.27v6.05h-1.27Z"/><path class="cls-1" d="M577.64,325.82a2.94,2.94,0,0,1,3-3.11,2.63,2.63,0,0,1,2.69,2l-1.2.37a1.45,1.45,0,0,0-1.51-1.25c-1.05,0-1.71.83-1.71,2v.05c0,1.19.62,2,1.67,2a1.49,1.49,0,0,0,1.6-1.32l1.2.37a2.7,2.7,0,0,1-2.78,2A2.88,2.88,0,0,1,577.64,325.82Z"/><path class="cls-1" d="M584.18,327.27c0-1.36,1-1.66,2.36-2,1-.22,1.65-.28,1.78-.61v-.09c0-.5-.37-.89-1.3-.89s-1.38.41-1.43,1.09v.08h-1.27c0-1.36,1.12-2.18,2.72-2.18s2.47.69,2.47,2.23v3.92h-1.21V328a2.23,2.23,0,0,1-2,1.06C585,329,584.18,328.31,584.18,327.27Zm4.14-.84v-.75a5.2,5.2,0,0,1-1.6.5c-.69.18-1.26.4-1.26,1s.37.83,1,.83A1.68,1.68,0,0,0,588.32,326.43Z"/><path class="cls-1" d="M591,320.23h1.27v8.63H591Z"/><path class="cls-1" d="M518.58,339.81v-5.16h1.28v5.13c0,1.62.68,2.39,2.14,2.39s2.1-.75,2.1-2.37v-5.15h1.27v5.15c0,2.37-1.27,3.51-3.36,3.51C519.76,343.31,518.58,342.09,518.58,339.81Z"/><path class="cls-1" d="M526.89,337.11h1.26v1.14A1.85,1.85,0,0,1,530,337c1.31,0,2.1.88,2.1,2.5v3.67h-1.26v-3.61c0-1-.4-1.45-1.22-1.45s-1.47.78-1.47,2.17v2.89h-1.26Z"/><path class="cls-1" d="M533.55,334.8h1.36v1.33h-1.36Zm0,2.31h1.27v6h-1.27Z"/><path class="cls-1" d="M535.8,337.11h1.31l1.6,4.54,1.53-4.54h1.32l-2.26,6.05h-1.16Z"/><path class="cls-1" d="M541.84,340.17a3,3,0,0,1,3-3.17c1.78,0,2.84,1.19,2.84,3.1v.46h-4.55a1.66,1.66,0,0,0,1.76,1.67,1.63,1.63,0,0,0,1.7-1.09l1.12.44a3.09,3.09,0,0,1-5.83-1.41Zm4.51-.55a1.48,1.48,0,0,0-1.58-1.59,1.67,1.67,0,0,0-1.7,1.59Z"/><path class="cls-1" d="M548.91,337.11h1.25v1.11c.18-.7.66-1.17,1.76-1.17h.19v1.23h-.58c-1.07,0-1.37.54-1.37,1.77v3.1h-1.25Z"/><path class="cls-1" d="M552.74,342.05l1.09-.58a2,2,0,0,0,1.64.81c.67,0,1.08-.31,1.08-.81s-.7-.64-1.65-.84-2.09-.62-2.09-1.78a2.07,2.07,0,0,1,2.28-1.87,3.19,3.19,0,0,1,2.62,1.29l-1.09.54a1.78,1.78,0,0,0-1.53-.81c-.65,0-1.07.31-1.07.77s.41.59,1.51.81,2.24.61,2.24,1.8a2.11,2.11,0,0,1-2.36,1.94A3.21,3.21,0,0,1,552.74,342.05Z"/><path class="cls-1" d="M558.9,334.8h1.36v1.33H558.9Zm0,2.31h1.26v6h-1.26Z"/><path class="cls-1" d="M562.28,341.64v-3.46h-1v-1.07h1v-1.18l1.22-.76v1.94h1.3v1.07h-1.3v3.31c0,.38.15.56.53.56h.72v1.1h-1.07C562.57,343.1,562.29,342.6,562.28,341.64Z"/><path class="cls-1" d="M565.72,344.45h.58c.83,0,1-.18,1.5-1.41l-2.33-5.93h1.32l1.61,4.5,1.47-4.5h1.34l-2.32,6.48c-.55,1.43-1.08,2-2.53,2h-.64Z"/><path class="cls-1" d="M348.69,257.3H316.06V248H391.9v9.26H359.27v88.32H348.69Z"/><path class="cls-1" d="M402.62,308.88V248h10.59v60.4c0,20.28,8.23,29.69,27.63,29.69,19.1,0,26.74-9.12,26.74-29.25V248H478v60.84c0,26-12.79,38.36-37.33,38.36C415,347.24,402.62,334.45,402.62,308.88Z"/></svg>