<svg id="Layer_1" data-name="Layer 1" xmlns="http://www.w3.org/2000/svg" viewBox="0 0 841.89 595.28"><defs><style>.cls-1{fill:#fff;}</style></defs><path class="cls-1" d="M356,393.57a47.67,47.67,0,0,1,19.37,4.07H360.78a44.07,44.07,0,0,0-9.56,0h-14.6A47.72,47.72,0,0,1,356,393.57Zm27.72-.59a55.86,55.86,0,0,0-62.33,4.66h6.53a52.11,52.11,0,0,1,56.15,0h5a54.76,54.76,0,0,0-4.8-3.26Zm-123-3.25a56.62,56.62,0,0,0-23.49-5.06l-1.33,0-2.27,5.81q1.78-.12,3.6-.12a50.83,50.83,0,0,1,21.48,4.71l.33-.89a50.81,50.81,0,0,1,6.26,3.44h6.53a54.88,54.88,0,0,0-11.45-7Zm51.48,7.91h2.85a60.07,60.07,0,0,1,66.47-10.49l-.48-1.27a60.85,60.85,0,0,1,17.28,11.76h2.74l-.65-.62-.35-.35a62.78,62.78,0,0,0-19.95-13.27l-.46-1.21a63.88,63.88,0,0,0-68.74,14.16h0c-.46.45-.93.88-1.42,1.29h2.71Zm-50.35-10.91a59.71,59.71,0,0,1,16.32,10.91h5.56q-.74-.61-1.41-1.29h0a63.84,63.84,0,0,0-19.12-13.18l.33-.9A64.36,64.36,0,0,0,239,376.75l-2.22,5.68h.46a58.8,58.8,0,0,1,24.29,5.2Zm105.36-26.89a15.89,15.89,0,0,1-3,2.35q2.86.3,5.69.79l.22-.21.31.31h0l-.31-.31c.53-.53,1.07-1,1.61-1.55l.36,1a62.62,62.62,0,0,1,22.33-13.63l.7,1.79a60.52,60.52,0,0,0-21.34,12.88l-1,.89.17.44,1.22.29c1.63.39,3.23.81,4.73,1.27l.5.15.39-.33A54.66,54.66,0,0,1,397.33,356l.68,1.74a52.55,52.55,0,0,0-15.08,8.14l-1.37,1.05,1.62.6c1.53.56,3,1.17,4.47,1.8l.49.21.44-.3a46.58,46.58,0,0,1,11.62-5.84h0l.7,1.78h0a45.1,45.1,0,0,0-9.33,4.38l-1.44.89,1.51.77c1.39.71,2.8,1.48,4.19,2.29l.46.28.47-.26a38.26,38.26,0,0,1,6.32-2.7l.69,1.77a37.07,37.07,0,0,0-4.08,1.6l-1.54.71,1.41.94c1.29.86,2.61,1.8,3.92,2.8l.42.32.49-.18c.52-.2,1.05-.37,1.58-.54l.68,1.77-1,.29,1.36,1.16.35.3,1.53,4h0a76.35,76.35,0,0,0-27.81-16.92c-.79-.28-1.59-.54-2.39-.78-1.59-.49-3.21-.93-4.84-1.32l.4,1.07A76.17,76.17,0,0,0,356,365.58a75.32,75.32,0,0,0-53.43,22l-.21.21a8.12,8.12,0,0,1-11.49,0l-.41-.41a75.68,75.68,0,0,0-23-15.56l-.34.89a74.51,74.51,0,0,0-24.25-6l5.05-13A72,72,0,0,1,280.48,337l-.37,1.06a72.29,72.29,0,0,1,16.35-1.87,71.25,71.25,0,0,1,50.72,21h0a12.28,12.28,0,0,0,17.35,0h0q2.06-2,4.23-3.9l.35.95a70.4,70.4,0,0,1,22.46-13.07l.69,1.78a68.43,68.43,0,0,0-22.43,13.18l.36,1c-1,.9-2,1.82-3,2.79Zm-62.89,21a28.23,28.23,0,0,0-7.86-1.12,28.56,28.56,0,0,0-7.63,1.05c1.28,1.1,2.53,2.23,3.75,3.41a25,25,0,0,1,3.88-.31,23.69,23.69,0,0,1,4.14.36Q302.41,382.43,304.32,380.81Zm7.47-5.67a36.22,36.22,0,0,0-30.47-.08q2,1.35,4,2.84a32.08,32.08,0,0,1,22.54.07C309.13,377,310.44,376,311.79,375.14Zm8-4.69a44.12,44.12,0,0,0-46.46-.08q2.16,1.1,4.24,2.32a40,40,0,0,1,38,.09Q317.61,371.55,319.76,370.45Zm-68.38-9a64.26,64.26,0,0,1,25.81-15.38l-.43,1.13a63.92,63.92,0,0,1,64.79,15.59h0l.27.26q2.82-.51,5.69-.81a16.71,16.71,0,0,1-3-2.38h0a67.44,67.44,0,0,0-48-19.89,68.68,68.68,0,0,0-17.87,2.36l-.41,1.11a66.47,66.47,0,0,0-28.86,16.89l-.2.2-.11.11-.57.56h0l-.43.36c.95.13,1.9.27,2.84.43l.16-.15.38-.38ZM273,357.19a55.9,55.9,0,0,1,59.55,8.08q2.37-.74,4.78-1.3A60.12,60.12,0,0,0,275,351.84l-.45,1.21a58.79,58.79,0,0,0-16.91,10.37q1.33.34,2.61.72a56.56,56.56,0,0,1,13.2-8.18Zm-2.53,6.71c-1.28.76-2.54,1.58-3.76,2.46.83.33,1.65.66,2.45,1l-.34.9.46.19a47.92,47.92,0,0,1,54.51.07c1.48-.65,3-1.26,4.51-1.82A52.09,52.09,0,0,0,271,362.5Zm-5.8,15.38a67.89,67.89,0,0,1,20.59,14.14h0a15.94,15.94,0,0,0,7.4,4.22h7.92a16,16,0,0,0,7.41-4.22h0a67.44,67.44,0,0,1,48-19.89,68.13,68.13,0,0,1,21.72,3.53l-.43-1.14a68.55,68.55,0,0,1,27.4,16.83l.17.16a15.07,15.07,0,0,0,8.39,4.12l-.12-.32-.69-1.77a13.16,13.16,0,0,1-5-2.31A12.64,12.64,0,0,1,406,391.4l-.38-.38a70.37,70.37,0,0,0-29.21-17.36l-.42-1.11a72,72,0,0,0-20-2.83,71.21,71.21,0,0,0-50.71,21h0a12.28,12.28,0,0,1-17.35,0h0a71.54,71.54,0,0,0-21.93-15l.33-.9A72.17,72.17,0,0,0,242,368.93l-2.18,5.6a66.82,66.82,0,0,1,24.48,5.64Zm-31.93,13.54-1.88,4.82h26.89l.17-.45a48.66,48.66,0,0,0-20.68-4.57C235.72,392.62,234.21,392.69,232.73,392.82Zm156.65-57.33a76.36,76.36,0,0,0-22.54,12.71l.36.94c-1.86,1.53-3.67,3.15-5.4,4.87l-.21.21a8.12,8.12,0,0,1-11.49,0l-.41-.41A75.35,75.35,0,0,0,296.46,332a76.73,76.73,0,0,0-14.74,1.43l-.37,1a74.15,74.15,0,0,0-31.71,14.91l59.08-151.74h27.17Zm-66.72-58.76a18.71,18.71,0,1,0,18.1,18.09A18.71,18.71,0,0,0,322.66,276.73Z"/><path class="cls-1" d="M438.64,208c0-5.39,3.38-9,8.53-9s8.4,3.65,8.4,9-3.39,9-8.53,9S438.64,213.39,438.64,208Zm14.2.05v-.13c0-4.07-2.18-6.59-5.7-6.59s-5.77,2.46-5.77,6.59v.13c0,4.09,2.17,6.61,5.69,6.61S452.84,212.21,452.84,208.06Z"/><path class="cls-1" d="M458.22,199h2.6v17.69h-2.6Z"/><path class="cls-1" d="M464.08,199h2.6v17.69h-2.6Z"/><path class="cls-1" d="M469.12,214.47l2.23-1.19a4,4,0,0,0,3.36,1.66c1.39,0,2.23-.63,2.23-1.66s-1.44-1.31-3.38-1.73c-2.26-.47-4.28-1.26-4.28-3.65,0-2.18,2-3.83,4.67-3.83a6.51,6.51,0,0,1,5.36,2.65l-2.24,1.1a3.63,3.63,0,0,0-3.12-1.65c-1.34,0-2.21.63-2.21,1.57s.84,1.21,3.1,1.66,4.6,1.26,4.6,3.7c0,2.28-2,4-4.83,4A6.62,6.62,0,0,1,469.12,214.47Z"/><path class="cls-1" d="M481.12,210.5a6,6,0,0,1,6.14-6.38,5.41,5.41,0,0,1,5.52,4l-2.47.76a3,3,0,0,0-3.1-2.57c-2.15,0-3.49,1.71-3.49,4.17v.11c0,2.44,1.26,4.17,3.41,4.17s2.86-1,3.28-2.7l2.47.76a5.56,5.56,0,0,1-5.7,4.12C483.48,216.93,481.12,214.28,481.12,210.5Z"/><path class="cls-1" d="M494.32,210.55a6.07,6.07,0,0,1,6.23-6.43c3.65,0,6.19,2.65,6.19,6.43a6.07,6.07,0,0,1-6.24,6.38A6,6,0,0,1,494.32,210.55Zm9.82.08v-.1c0-2.6-1.39-4.23-3.59-4.23s-3.63,1.63-3.63,4.23v.1c0,2.55,1.37,4.12,3.58,4.12S504.14,213.15,504.14,210.63Z"/><path class="cls-1" d="M509.21,199.6H512v2.73h-2.79Zm.08,4.73h2.6v12.39h-2.6Z"/><path class="cls-1" d="M515.17,199h2.6v17.69h-2.6Z"/><path class="cls-1" d="M443.91,230.92h-5.54v-2.33H452.1v2.33h-5.56V246h-2.63Z"/><path class="cls-1" d="M450.77,239.9c0-3.83,2.54-6.48,6.06-6.48s5.83,2.44,5.83,6.35v.95h-9.32a3.39,3.39,0,0,0,3.6,3.41,3.34,3.34,0,0,0,3.49-2.23l2.28.89c-.84,1.92-2.6,3.44-5.77,3.44C453.13,246.23,450.77,243.71,450.77,239.9Zm9.24-1.13c-.11-2.12-1.29-3.25-3.23-3.25a3.42,3.42,0,0,0-3.49,3.25Z"/><path class="cls-1" d="M465.18,228.9H468v2.73h-2.78Zm.08,4.73h2.6V246h-2.6Z"/><path class="cls-1" d="M470.43,239.8a6,6,0,0,1,6.15-6.38,5.39,5.39,0,0,1,5.51,4l-2.47.76a3,3,0,0,0-3.1-2.57c-2.15,0-3.49,1.7-3.49,4.17v.11c0,2.44,1.26,4.17,3.41,4.17a3.05,3.05,0,0,0,3.29-2.7l2.46.76a5.55,5.55,0,0,1-5.69,4.12C472.79,246.23,470.43,243.58,470.43,239.8Z"/><path class="cls-1" d="M484.45,233.63H487V236a3.81,3.81,0,0,1,3.8-2.6c2.68,0,4.31,1.82,4.31,5.12V246h-2.6v-7.4c0-2-.81-3-2.49-3-1.92,0-3,1.6-3,4.44V246h-2.58Z"/><path class="cls-1" d="M497.48,239.9c0-3.83,2.54-6.48,6.06-6.48s5.83,2.44,5.83,6.35v.95h-9.32a3.39,3.39,0,0,0,3.6,3.41,3.33,3.33,0,0,0,3.49-2.23l2.28.89c-.84,1.92-2.6,3.44-5.77,3.44C499.84,246.23,497.48,243.71,497.48,239.9Zm9.24-1.13c-.11-2.12-1.29-3.25-3.23-3.25a3.42,3.42,0,0,0-3.49,3.25Z"/><path class="cls-1" d="M511.29,239.85a6.21,6.21,0,1,1,6.17,6.38C513.81,246.23,511.29,243.63,511.29,239.85Zm9.82.08v-.11c0-2.6-1.4-4.22-3.6-4.22s-3.62,1.62-3.62,4.22v.11c0,2.55,1.36,4.12,3.57,4.12S521.11,242.45,521.11,239.93Z"/><path class="cls-1" d="M526.25,228.32h2.6V246h-2.6Z"/><path class="cls-1" d="M531.45,242.76c0-2.78,2.08-3.41,4.83-4,2.1-.45,3.39-.58,3.65-1.26v-.19c0-1-.76-1.81-2.65-1.81s-2.83.84-2.94,2.23v.16h-2.6c.08-2.78,2.28-4.46,5.57-4.46s5.07,1.41,5.07,4.57v6.11l0,1.92h-2.49v-1.86a4.58,4.58,0,0,1-4.18,2.18C533.08,246.34,531.45,244.89,531.45,242.76Zm8.48-1.73v-1.52a11.13,11.13,0,0,1-3.28,1c-1.42.37-2.57.82-2.57,2.13,0,1,.76,1.71,2.12,1.71A3.44,3.44,0,0,0,539.93,241Z"/><path class="cls-1" d="M545.47,233.63h2.6V246h-2.6ZM547,228h2.68v.23l-2.68,3.6h-1.39Z"/><path class="cls-1" d="M550.65,239.85a6.21,6.21,0,1,1,6.17,6.38C553.17,246.23,550.65,243.63,550.65,239.85Zm9.82.08v-.11c0-2.6-1.4-4.22-3.6-4.22s-3.62,1.62-3.62,4.22v.11c0,2.55,1.36,4.12,3.57,4.12S560.47,242.45,560.47,239.93Z"/><path class="cls-1" d="M564.9,239.8a6,6,0,0,1,6.15-6.38,5.39,5.39,0,0,1,5.51,4l-2.47.76a3,3,0,0,0-3.1-2.57c-2.15,0-3.49,1.7-3.49,4.17v.11c0,2.44,1.26,4.17,3.42,4.17,2,0,2.86-1,3.28-2.7l2.47.76a5.57,5.57,0,0,1-5.7,4.12C567.27,246.23,564.9,243.58,564.9,239.8Z"/><path class="cls-1" d="M578.92,228.32h2.52v7.75a3.73,3.73,0,0,1,3.79-2.65c2.67,0,4.3,1.76,4.3,5.06V246h-2.6v-7.4c0-2-.81-3-2.49-3-1.92,0-3,1.6-3,4.44V246h-2.52Z"/><path class="cls-1" d="M593.16,242.92v-7.09h-2v-2.2h2v-2.42l2.49-1.55v4h2.68v2.2h-2.68v6.78c0,.78.31,1.15,1.1,1.15h1.47V246H596C593.76,245.92,593.18,244.89,593.16,242.92Z"/><path class="cls-1" d="M600.09,242.76c0-2.78,2.07-3.41,4.83-4,2.1-.45,3.39-.58,3.65-1.26v-.19c0-1-.76-1.81-2.65-1.81s-2.84.84-2.94,2.23v.16h-2.6c.08-2.78,2.28-4.46,5.56-4.46S611,234.83,611,238v6.11l0,1.92h-2.5v-1.86a4.57,4.57,0,0,1-4.17,2.18C601.72,246.34,600.09,244.89,600.09,242.76Zm8.48-1.73v-1.52a11.23,11.23,0,0,1-3.28,1c-1.42.37-2.58.82-2.58,2.13,0,1,.76,1.71,2.13,1.71A3.44,3.44,0,0,0,608.57,241Z"/><path class="cls-1" d="M438.53,272.06c0-2.78,2.07-3.41,4.83-4,2.1-.44,3.39-.57,3.65-1.26v-.18c0-1-.76-1.81-2.65-1.81s-2.84.84-2.94,2.23v.16h-2.6c.08-2.79,2.28-4.47,5.56-4.47s5.07,1.42,5.07,4.57v6.12l0,1.92H447v-1.87a4.56,4.56,0,0,1-4.17,2.18C440.16,275.63,438.53,274.19,438.53,272.06Zm8.48-1.73v-1.52a11.13,11.13,0,0,1-3.28,1c-1.42.37-2.57.81-2.57,2.13,0,1,.76,1.7,2.12,1.7A3.44,3.44,0,0,0,447,270.33Z"/><path class="cls-1" d="M452.55,262.92h2.57v2.34a3.83,3.83,0,0,1,3.81-2.6c2.68,0,4.31,1.81,4.31,5.12v7.54h-2.6v-7.41c0-1.94-.82-3-2.5-3-1.91,0-3,1.6-3,4.43v5.94h-2.57Z"/><path class="cls-1" d="M477.21,257.88h3.07l6.38,17.44h-2.78l-1.82-5.07h-6.82l-1.89,5.07h-2.71Zm4,10.06-2.57-7.19L476,267.94Z"/><path class="cls-1" d="M488.71,272.22v-7.09h-2v-2.21h2v-2.41L491.2,259v4h2.68v2.21H491.2v6.77c0,.79.32,1.16,1.1,1.16h1.47v2.26h-2.2C489.31,275.21,488.73,274.19,488.71,272.22Z"/><path class="cls-1" d="M496.45,257.62h2.6v17.7h-2.6Z"/><path class="cls-1" d="M501.65,272.06c0-2.78,2.08-3.41,4.83-4,2.1-.44,3.39-.57,3.65-1.26v-.18c0-1-.76-1.81-2.65-1.81s-2.84.84-2.94,2.23v.16h-2.6c.08-2.79,2.28-4.47,5.57-4.47s5.06,1.42,5.06,4.57v6.12l0,1.92h-2.49v-1.87a4.58,4.58,0,0,1-4.18,2.18C503.28,275.63,501.65,274.19,501.65,272.06Zm8.48-1.73v-1.52a11.13,11.13,0,0,1-3.28,1c-1.42.37-2.57.81-2.57,2.13,0,1,.76,1.7,2.12,1.7A3.43,3.43,0,0,0,510.13,270.33Z"/><path class="cls-1" d="M515.67,262.92h2.57v2.34a3.83,3.83,0,0,1,3.81-2.6c2.68,0,4.31,1.81,4.31,5.12v7.54h-2.6v-7.41c0-1.94-.81-3-2.49-3-1.92,0-3,1.6-3,4.43v5.94h-2.57Z"/><path class="cls-1" d="M530,272.22v-7.09h-2v-2.21h2v-2.41l2.5-1.55v4h2.67v2.21h-2.67v6.77c0,.79.31,1.16,1.1,1.16h1.47v2.26h-2.21C530.58,275.21,530,274.19,530,272.22Z"/><path class="cls-1" d="M536.91,272.06c0-2.78,2.08-3.41,4.83-4,2.11-.44,3.39-.57,3.65-1.26v-.18c0-1-.76-1.81-2.65-1.81s-2.83.84-2.94,2.23v.16h-2.6c.08-2.79,2.29-4.47,5.57-4.47s5.07,1.42,5.07,4.57v6.12l0,1.92h-2.49v-1.87a4.58,4.58,0,0,1-4.18,2.18C538.54,275.63,536.91,274.19,536.91,272.06Zm8.48-1.73v-1.52a11.13,11.13,0,0,1-3.28,1c-1.42.37-2.57.81-2.57,2.13,0,1,.76,1.7,2.13,1.7A3.43,3.43,0,0,0,545.39,270.33Z"/><path class="cls-1" d="M550.86,258.2h2.78v2.73h-2.78Zm.08,4.72h2.59v12.4h-2.59Z"/><path class="cls-1" d="M556.76,275.53h2.58c0,1.92.81,2.7,3,2.7,2.49,0,3.47-.94,3.47-3.36V273a4.72,4.72,0,0,1-4.1,2.05c-3.36,0-5.59-2.42-5.59-6.12v0c0-3.75,2.23-6.25,5.59-6.25a4.72,4.72,0,0,1,4,2v-1.71h2.6v11.37c0,4.18-1.84,6.07-5.88,6.07C558.6,280.36,556.76,278.78,556.76,275.53Zm9.06-6.62v-.21c0-2.36-1.31-3.86-3.49-3.86s-3.52,1.52-3.52,4V269c0,2.41,1.29,3.86,3.52,3.86S565.82,271.3,565.82,268.91Z"/><path class="cls-1" d="M571.52,257.62H574v7.75a3.74,3.74,0,0,1,3.78-2.66c2.68,0,4.31,1.76,4.31,5.07v7.54h-2.6v-7.41c0-1.94-.81-3-2.5-3-1.91,0-3,1.6-3,4.43v5.94h-2.52Z"/><path class="cls-1" d="M444.81,316.48h3.07l6.38,17.43h-2.79l-1.81-5.07h-6.82l-1.9,5.07h-2.7Zm4,10-2.57-7.19-2.66,7.19Z"/><path class="cls-1" d="M456.31,330.81v-7.09h-2v-2.2h2V319.1l2.49-1.55v4h2.68v2.2H458.8v6.78c0,.79.32,1.15,1.1,1.15h1.47v2.26h-2.2C456.91,333.81,456.33,332.78,456.31,330.81Z"/><path class="cls-1" d="M464.05,316.21h2.6v17.7h-2.6Z"/><path class="cls-1" d="M469.25,330.66c0-2.79,2.07-3.42,4.83-4,2.1-.45,3.39-.58,3.65-1.26v-.19c0-1-.76-1.81-2.65-1.81s-2.84.84-2.94,2.23v.16h-2.6c.08-2.78,2.28-4.46,5.57-4.46s5.06,1.42,5.06,4.57V332l0,1.92h-2.5v-1.86a4.56,4.56,0,0,1-4.17,2.18C470.88,334.23,469.25,332.78,469.25,330.66Zm8.48-1.74V327.4a11.13,11.13,0,0,1-3.28,1c-1.42.37-2.57.82-2.57,2.13,0,1,.76,1.71,2.12,1.71A3.44,3.44,0,0,0,477.73,328.92Z"/><path class="cls-1" d="M483.27,321.52h2.57v2.33a3.83,3.83,0,0,1,3.81-2.6c2.68,0,4.31,1.82,4.31,5.13v7.53h-2.6v-7.4c0-1.95-.81-3-2.5-3-1.91,0-3,1.6-3,4.44v5.93h-2.57Z"/><path class="cls-1" d="M497.58,330.81v-7.09h-2v-2.2h2V319.1l2.5-1.55v4h2.67v2.2h-2.67v6.78c0,.79.31,1.15,1.1,1.15h1.47v2.26h-2.21C498.18,333.81,497.61,332.78,497.58,330.81Z"/><path class="cls-1" d="M505.25,316.79H508v2.73h-2.78Zm.08,4.73h2.6v12.39h-2.6Z"/><path class="cls-1" d="M510.5,327.69a6,6,0,0,1,6.14-6.38,5.39,5.39,0,0,1,5.52,4l-2.47.76a3,3,0,0,0-3.1-2.57c-2.15,0-3.49,1.7-3.49,4.17v.11c0,2.44,1.26,4.17,3.41,4.17s2.86-1,3.28-2.7l2.47.76a5.56,5.56,0,0,1-5.7,4.12C512.86,334.12,510.5,331.47,510.5,327.69Z"/><path class="cls-1" d="M443.91,348.11h-5.54v-2.34H452.1v2.34h-5.56v15.1h-2.63Z"/><path class="cls-1" d="M450.77,357.09c0-3.83,2.54-6.48,6.06-6.48s5.83,2.44,5.83,6.35v.94h-9.32a3.39,3.39,0,0,0,3.6,3.42,3.35,3.35,0,0,0,3.49-2.23l2.28.89c-.84,1.92-2.6,3.44-5.77,3.44C453.13,363.42,450.77,360.9,450.77,357.09ZM460,356c-.11-2.12-1.29-3.25-3.23-3.25a3.42,3.42,0,0,0-3.49,3.25Z"/><path class="cls-1" d="M464.6,357a6,6,0,0,1,6.15-6.38,5.39,5.39,0,0,1,5.51,4l-2.47.76a3,3,0,0,0-3.1-2.58c-2.15,0-3.49,1.71-3.49,4.18v.1c0,2.45,1.26,4.18,3.42,4.18,2,0,2.86-1,3.28-2.7l2.47.76a5.57,5.57,0,0,1-5.7,4.12C467,363.42,464.6,360.77,464.6,357Z"/><path class="cls-1" d="M478.62,345.51h2.52v7.75a3.73,3.73,0,0,1,3.79-2.65c2.67,0,4.3,1.75,4.3,5.06v7.54h-2.6V355.8c0-1.94-.81-3-2.49-3-1.92,0-3,1.6-3,4.43v5.94h-2.52Z"/><path class="cls-1" d="M492.28,350.82h2.57v2.33a3.83,3.83,0,0,1,3.81-2.6c2.68,0,4.3,1.81,4.3,5.12v7.54h-2.6V355.8c0-1.94-.81-3-2.49-3-1.92,0-3,1.6-3,4.43v5.94h-2.57Z"/><path class="cls-1" d="M505.3,357a6.21,6.21,0,1,1,6.17,6.38C507.82,363.42,505.3,360.82,505.3,357Zm9.82.08V357c0-2.6-1.39-4.23-3.6-4.23s-3.62,1.63-3.62,4.23v.11c0,2.54,1.37,4.12,3.57,4.12S515.12,359.64,515.12,357.12Z"/><path class="cls-1" d="M520.27,345.51h2.6v17.7h-2.6Z"/><path class="cls-1" d="M525.41,357a6.07,6.07,0,0,1,6.23-6.43c3.65,0,6.19,2.65,6.19,6.43a6.07,6.07,0,0,1-6.25,6.38C527.93,363.42,525.41,360.82,525.41,357Zm9.82.08V357c0-2.6-1.39-4.23-3.59-4.23S528,354.41,528,357v.11c0,2.54,1.37,4.12,3.57,4.12S535.23,359.64,535.23,357.12Z"/><path class="cls-1" d="M540.33,363.42h2.57c0,1.92.81,2.7,3,2.7,2.5,0,3.47-.94,3.47-3.36V360.9a4.72,4.72,0,0,1-4.1,2.05c-3.36,0-5.59-2.42-5.59-6.12v0c0-3.75,2.23-6.25,5.59-6.25a4.7,4.7,0,0,1,4,2v-1.7h2.6v11.36c0,4.18-1.83,6.07-5.88,6.07C542.17,368.25,540.33,366.67,540.33,363.42Zm9.06-6.62v-.21c0-2.36-1.32-3.86-3.5-3.86s-3.51,1.53-3.51,4v.21c0,2.41,1.28,3.86,3.51,3.86S549.39,359.19,549.39,356.8Z"/><path class="cls-1" d="M555,346.09h2.79v2.73H555Zm.08,4.73h2.6v12.39h-2.6Z"/><path class="cls-1" d="M560.26,357a6,6,0,0,1,6.14-6.38,5.39,5.39,0,0,1,5.51,4l-2.46.76a3,3,0,0,0-3.1-2.58c-2.16,0-3.49,1.71-3.49,4.18v.1c0,2.45,1.26,4.18,3.41,4.18,2,0,2.86-1,3.28-2.7l2.47.76a5.56,5.56,0,0,1-5.7,4.12C562.62,363.42,560.26,360.77,560.26,357Z"/><path class="cls-1" d="M573.67,360c0-2.78,2.08-3.41,4.83-4,2.11-.45,3.39-.58,3.65-1.26v-.19c0-1-.76-1.81-2.65-1.81s-2.83.84-2.94,2.23v.16H574c.08-2.78,2.29-4.46,5.57-4.46s5.07,1.41,5.07,4.56v6.12l0,1.92h-2.49v-1.87a4.56,4.56,0,0,1-4.18,2.18C575.3,363.52,573.67,362.08,573.67,360Zm8.48-1.73V356.7a11.13,11.13,0,0,1-3.28,1c-1.42.37-2.57.82-2.57,2.13,0,1,.76,1.7,2.13,1.7A3.43,3.43,0,0,0,582.15,358.22Z"/><path class="cls-1" d="M587.7,345.51h2.59v17.7H587.7Z"/><path class="cls-1" d="M439.19,385.65V375.07h2.62V385.6c0,3.31,1.39,4.88,4.39,4.88s4.3-1.52,4.3-4.85V375.07h2.6v10.56c0,4.85-2.6,7.19-6.88,7.19C441.6,392.82,439.19,390.33,439.19,385.65Z"/><path class="cls-1" d="M456.23,380.11h2.57v2.34a3.83,3.83,0,0,1,3.81-2.6c2.68,0,4.3,1.81,4.3,5.12v7.54h-2.6V385.1c0-1.94-.81-3-2.49-3-1.92,0-3,1.61-3,4.44v5.94h-2.57Z"/><path class="cls-1" d="M469.88,375.39h2.78v2.73h-2.78Zm.08,4.72h2.6v12.4H470Z"/><path class="cls-1" d="M474.5,380.11h2.68l3.28,9.32,3.13-9.32h2.7l-4.62,12.42h-2.39Z"/><path class="cls-1" d="M486.87,386.39c0-3.84,2.55-6.49,6.06-6.49s5.83,2.44,5.83,6.36v.94h-9.32a3.39,3.39,0,0,0,3.6,3.42,3.34,3.34,0,0,0,3.49-2.24l2.29.9c-.84,1.91-2.6,3.44-5.78,3.44C489.23,392.72,486.87,390.2,486.87,386.39Zm9.24-1.13c-.1-2.13-1.29-3.26-3.23-3.26a3.44,3.44,0,0,0-3.49,3.26Z"/><path class="cls-1" d="M501.36,380.11h2.57v2.29c.37-1.45,1.34-2.39,3.6-2.39h.4v2.52h-1.19c-2.2,0-2.81,1.1-2.81,3.62v6.36h-2.57Z"/><path class="cls-1" d="M509.21,390.25l2.24-1.18a4,4,0,0,0,3.36,1.65c1.39,0,2.23-.63,2.23-1.65s-1.45-1.32-3.39-1.74c-2.26-.47-4.28-1.26-4.28-3.65,0-2.18,2.05-3.83,4.67-3.83a6.51,6.51,0,0,1,5.36,2.65l-2.23,1.11A3.64,3.64,0,0,0,514,382c-1.33,0-2.2.63-2.2,1.58s.84,1.2,3.1,1.65,4.59,1.26,4.59,3.7-2,4-4.83,4A6.63,6.63,0,0,1,509.21,390.25Z"/><path class="cls-1" d="M521.84,375.39h2.79v2.73h-2.79Zm.08,4.72h2.6v12.4h-2.6Z"/><path class="cls-1" d="M528.77,389.41v-7.09h-2v-2.21h2V377.7l2.5-1.55v4H534v2.21h-2.68v6.77c0,.79.31,1.16,1.1,1.16h1.47v2.26h-2.2C529.38,392.4,528.8,391.38,528.77,389.41Z"/><path class="cls-1" d="M535.84,395.16H537c1.71,0,2.1-.37,3.07-2.89l-4.78-12.16H538l3.31,9.25,3-9.25h2.73l-4.75,13.29c-1.13,2.94-2.2,4.09-5.17,4.09h-1.31Z"/></svg>