<?xml version="1.0" encoding="utf-8"?>
<!-- Generator: Adobe Illustrator 27.4.0, SVG Export Plug-In . SVG Version: 6.00 Build 0)  -->
<svg version="1.1" id="Layer_1" xmlns="http://www.w3.org/2000/svg" xmlns:xlink="http://www.w3.org/1999/xlink" x="0px" y="0px"
	 viewBox="0 0 841.89 595.28" style="enable-background:new 0 0 841.89 595.28;" xml:space="preserve">
<style type="text/css">
	.st0{fill:#005B5E;}
</style>
<g>
	<path class="st0" d="M296.49,471.82c13,0,25.58,2.69,37.12,7.79h-27.96c-3.02-0.32-6.08-0.5-9.16-0.5c-3.08,0-6.14,0.18-9.16,0.5
		h-27.96C270.91,474.51,283.49,471.82,296.49,471.82z M349.62,470.69c-16-9.19-34.18-14.1-53.12-14.1c-24.37,0-47.5,8.1-66.31,23.03
		h12.51c15.91-10.24,34.43-15.74,53.8-15.74c19.37,0,37.89,5.49,53.8,15.74h3.3h6.24c-2.97-2.25-6.04-4.33-9.2-6.24L349.62,470.69z
		 M113.93,464.47c-13.96-6.35-29.23-9.7-45.02-9.7c-0.85,0-1.7,0.01-2.55,0.03l-4.34,11.15c2.28-0.16,4.58-0.24,6.89-0.24
		c14.45,0,28.43,3.12,41.16,9.02l0.64-1.7c4.14,1.91,8.15,4.11,12,6.59h12.51c-6.8-5.39-14.16-9.88-21.94-13.43L113.93,464.47z
		 M212.56,479.62h5.47c21.35-20,49.06-30.97,78.46-30.97c17.19,0,33.81,3.76,48.91,10.88l-0.92-2.44
		c12.11,5.47,23.3,13.04,33.11,22.53h5.24c-0.42-0.38-0.83-0.77-1.24-1.18l-0.68-0.68c-11.18-11.01-24.14-19.57-38.22-25.42
		l-0.88-2.32c-14.23-5.68-29.55-8.66-45.33-8.66c-32.64,0-63.32,12.71-86.4,35.79v0c-0.87,0.87-1.78,1.69-2.71,2.47H212.56
		L212.56,479.62z M116.09,458.72c11.38,5.13,21.93,12.15,31.27,20.89h10.65c-0.94-0.78-1.84-1.6-2.71-2.47l0,0
		c-10.75-10.75-23.16-19.24-36.64-25.26l0.65-1.72c-14.66-6.53-30.58-10.15-47.04-10.59l-4.24,10.9c0.29,0,0.58-0.01,0.87-0.01
		c16.32,0,32.1,3.44,46.54,9.96L116.09,458.72z M317.99,407.19c-1.75,1.75-3.67,3.25-5.72,4.51c3.67,0.37,7.31,0.88,10.91,1.51
		c0.14-0.14,0.29-0.27,0.42-0.4l0.59,0.59c0,0,0,0,0,0l-0.59-0.59c1.01-1.01,2.04-1.99,3.08-2.96l0.69,1.84
		c12.46-11.78,27.01-20.6,42.79-26.12l1.33,3.43c-15.05,5.25-28.97,13.58-40.89,24.67l-1.84,1.71l0.32,0.85l2.34,0.55
		c3.14,0.74,6.19,1.56,9.07,2.43l0.95,0.29l0.76-0.64c9.94-8.41,21.32-14.81,33.5-19.01l1.29,3.32
		c-10.33,3.54-20.05,8.77-28.9,15.61l-2.61,2.02l3.1,1.14c2.93,1.08,5.82,2.24,8.57,3.45l0.93,0.41l0.84-0.58
		c3.46-2.4,7.06-4.53,10.78-6.4c3.72-1.87,7.56-3.46,11.49-4.79h0l1.33,3.42l0,0c-6.24,2.09-12.24,4.89-17.87,8.39l-2.75,1.71
		l2.88,1.47c2.67,1.36,5.37,2.84,8.02,4.4l0.89,0.52l0.9-0.49c3.87-2.09,7.93-3.82,12.12-5.18l1.32,3.4
		c-2.65,0.86-5.27,1.87-7.82,3.05l-2.95,1.37l2.71,1.81c2.47,1.65,5,3.45,7.52,5.37l0.8,0.61l0.94-0.35c1-0.37,2-0.71,3.01-1.02
		l1.31,3.39l-1.97,0.55l2.6,2.22c0.22,0.19,0.45,0.4,0.67,0.59l2.93,7.56c0,0,0,0,0,0l0,0c-15.47-14.69-33.61-25.66-53.29-32.43
		c-1.51-0.52-3.04-1.02-4.57-1.49c-3.06-0.94-6.16-1.78-9.29-2.52l0.77,2.05c-11.29-2.77-22.99-4.2-34.92-4.2
		c-38.64,0-74.97,14.97-102.38,42.17l-0.41,0.41c-2.94,2.94-6.85,4.56-11.01,4.56c-4.16,0-8.07-1.62-11.01-4.56l-0.79-0.79
		c-12.94-12.75-27.85-22.78-44.04-29.81l-0.64,1.71c-14.61-6.36-30.28-10.26-46.47-11.46l9.67-24.83
		c17.89-16.1,39.28-27.1,62.38-32.26l-0.71,2.04c10.16-2.36,20.65-3.58,31.34-3.58c36.71,0,71.22,14.29,97.17,40.25l0,0
		c4.44,4.44,10.34,6.88,16.62,6.88c6.28,0,12.18-2.45,16.62-6.89v0c2.61-2.61,5.31-5.1,8.09-7.47l0.68,1.82
		c12.82-11.05,27.38-19.49,43.04-25.04l1.32,3.4c-15.69,5.54-30.25,14.06-42.99,25.27l0.69,1.83
		C321.73,403.56,319.83,405.34,317.99,407.19L317.99,407.19z M197.47,447.36c-4.83-1.4-9.89-2.13-15.05-2.13
		c-5.02,0-9.93,0.7-14.63,2.01c2.45,2.09,4.85,4.27,7.19,6.54c2.44-0.39,4.92-0.61,7.44-0.61c2.68,0,5.33,0.24,7.92,0.69
		C192.66,451.61,195.04,449.44,197.47,447.36z M211.78,436.5c-9.07-4.25-19.04-6.5-29.36-6.5c-10.19,0-20.04,2.2-29.02,6.35
		c2.59,1.73,5.12,3.54,7.61,5.43c6.76-2.52,13.98-3.84,21.41-3.84c7.57,0,14.92,1.38,21.79,3.99
		C206.68,440.04,209.2,438.23,211.78,436.5z M227.06,427.52c-13.27-8.3-28.61-12.76-44.64-12.76c-15.93,0-31.18,4.4-44.38,12.59
		c2.75,1.4,5.46,2.89,8.12,4.46c11.01-5.95,23.4-9.11,36.26-9.11c12.98,0,25.46,3.22,36.55,9.27
		C221.62,430.41,224.32,428.92,227.06,427.52z M96.02,410.23c14.17-13.77,31.06-23.76,49.45-29.47l-0.82,2.17
		c12.04-3.9,24.74-5.92,37.76-5.92c32.64,0,63.32,12.71,86.4,35.79l0,0c0.17,0.17,0.34,0.33,0.52,0.49
		c3.6-0.64,7.24-1.16,10.91-1.54c-2.09-1.27-4.04-2.79-5.81-4.57l0,0c-24.58-24.58-57.26-38.11-92.02-38.11
		c-11.73,0-23.22,1.55-34.24,4.53l-0.8,2.11c-20.68,5.83-39.64,16.84-55.3,32.37l-0.38,0.38c-0.07,0.07-0.13,0.13-0.2,0.2
		l-1.09,1.09l-0.03-0.03c-0.27,0.24-0.54,0.48-0.82,0.71c1.83,0.24,3.64,0.52,5.44,0.82c0.1-0.1,0.2-0.2,0.3-0.3L96.02,410.23
		L96.02,410.23z M137.43,402.11c13.92-6.46,29.19-9.87,44.99-9.87c25.61,0,49.83,8.94,69.13,25.34c3.02-0.92,6.07-1.75,9.15-2.49
		c-21.33-19.89-48.96-30.8-78.28-30.8c-14.29,0-28.17,2.6-41.12,7.56l-0.87,2.32c-11.75,4.7-22.7,11.38-32.4,19.87
		c1.71,0.44,3.38,0.9,5,1.38c7.71-6.4,16.23-11.66,25.3-15.67L137.43,402.11z M132.59,414.96c-2.46,1.46-4.87,3.03-7.21,4.72
		c1.6,0.63,3.17,1.27,4.71,1.93l-0.65,1.72c0.29,0.12,0.58,0.24,0.87,0.36c15.2-10.54,33.22-16.22,52.12-16.22
		c18.98,0,37.09,5.73,52.33,16.37c2.84-1.26,5.73-2.42,8.64-3.5c-17.38-13.5-38.62-20.81-60.98-20.81
		c-17.39,0-34.08,4.44-48.82,12.75L132.59,414.96z M121.48,444.44c14.52,6.41,27.88,15.53,39.44,27.09l0,0
		c3.98,3.98,8.87,6.74,14.19,8.08h15.17c5.32-1.34,10.21-4.1,14.19-8.08v0c24.58-24.58,57.26-38.11,92.02-38.11
		c14.37,0,28.39,2.32,41.63,6.77l-0.83-2.19c19.58,6.34,37.53,17.27,52.5,32.24l0.32,0.32c4.45,4.31,10.04,7.03,16.08,7.88
		l-0.23-0.6l-1.32-3.39c-3.46-0.78-6.71-2.28-9.56-4.43c-0.95-0.72-1.86-1.5-2.71-2.36l-0.74-0.74
		c-15.95-15.71-35.1-27.01-55.98-33.27l-0.8-2.13c-12.31-3.56-25.19-5.41-38.36-5.41c-36.71,0-71.22,14.29-97.17,40.25v0
		c-4.44,4.44-10.34,6.89-16.62,6.89c-6.28,0-12.18-2.45-16.62-6.88l0,0c-12.31-12.31-26.55-21.99-42.03-28.77l0.65-1.72
		c-14.62-6.39-30.33-10.23-46.59-11.28l-4.18,10.73c16.4,0.63,32.25,4.32,46.9,10.8L121.48,444.44z M60.28,470.39l-3.59,9.22h51.53
		l0.32-0.86C96.29,473.02,82.83,470,68.91,470C66.01,470,63.13,470.13,60.28,470.39z M360.45,360.53
		c-15.57,5.55-30.15,13.75-43.18,24.35l0.68,1.81c-3.57,2.93-7.02,6.03-10.34,9.32l-0.41,0.41c-2.94,2.94-6.85,4.56-11.01,4.56
		c-4.16,0-8.07-1.62-11.01-4.56l-0.79-0.79c-27.36-26.96-63.54-41.79-102-41.79c-9.6,0-19.05,0.93-28.26,2.74l-0.7,2
		c-22.2,4.53-42.95,14.25-60.76,28.57L205.91,96.38h24.19h27.88L360.45,360.53z M232.62,247.94c-20.73-0.66-37.68,16.28-37.02,37.02
		c0.6,18.78,15.89,34.07,34.67,34.67c20.73,0.66,37.68-16.28,37.01-37.01C266.69,263.83,251.4,248.54,232.62,247.94z"/>
	<g>
		<path class="st0" d="M454.84,116.24c0-10.31,6.49-17.31,16.35-17.31c9.66,0,16.1,6.99,16.1,17.31c0,10.32-6.49,17.31-16.35,17.31
			C461.28,133.55,454.84,126.56,454.84,116.24z M482.06,116.34v-0.25c0-7.8-4.18-12.63-10.92-12.63c-6.79,0-11.07,4.73-11.07,12.63
			v0.25c0,7.85,4.18,12.68,10.92,12.68C477.79,129.02,482.06,124.29,482.06,116.34z"/>
		<path class="st0" d="M492.38,99.04h4.98v33.91h-4.98V99.04z"/>
		<path class="st0" d="M503.6,99.04h4.98v33.91h-4.98V99.04z"/>
		<path class="st0" d="M513.25,128.62l4.28-2.26c1.46,2.11,3.92,3.17,6.44,3.17c2.67,0,4.28-1.21,4.28-3.17
			c0-2.06-2.77-2.52-6.49-3.32c-4.33-0.91-8.2-2.42-8.2-6.99c0-4.18,3.92-7.35,8.96-7.35c4.48,0,7.95,2.01,10.26,5.08l-4.28,2.11
			c-1.36-2.06-3.52-3.17-5.99-3.17c-2.57,0-4.23,1.21-4.23,3.02c0,1.96,1.61,2.31,5.94,3.17c4.33,0.86,8.8,2.42,8.8,7.09
			c0,4.38-3.87,7.6-9.26,7.6C519.19,133.6,515.42,131.64,513.25,128.62z"/>
		<path class="st0" d="M536.25,121.02c0-7.09,4.83-12.23,11.77-12.23c5.58,0,9.11,3.02,10.57,7.65l-4.73,1.46
			c-0.8-3.02-2.52-4.93-5.94-4.93c-4.13,0-6.69,3.27-6.69,8v0.2c0,4.68,2.41,8,6.54,8c3.83,0,5.48-1.96,6.29-5.18l4.73,1.46
			c-1.56,4.83-5.13,7.9-10.92,7.9C540.77,133.35,536.25,128.27,536.25,121.02z"/>
		<path class="st0" d="M561.55,121.13c0-7.25,4.93-12.33,11.93-12.33c6.99,0,11.87,5.08,11.87,12.33c0,7.14-4.98,12.23-11.97,12.23
			C566.38,133.35,561.55,128.37,561.55,121.13z M580.37,121.28v-0.2c0-4.98-2.67-8.1-6.89-8.1c-4.23,0-6.94,3.12-6.94,8.1v0.2
			c0,4.88,2.62,7.9,6.84,7.9C577.65,129.18,580.37,126.11,580.37,121.28z"/>
		<path class="st0" d="M590.08,100.14h5.33v5.23h-5.33V100.14z M590.23,109.2h4.98v23.75h-4.98V109.2z"/>
		<path class="st0" d="M601.5,99.04h4.98v33.91h-4.98V99.04z"/>
		<path class="st0" d="M464.95,160.16h-10.62v-4.48h26.31v4.48h-10.67v28.93h-5.03V160.16z"/>
		<path class="st0" d="M478.09,177.36c0-7.35,4.88-12.43,11.62-12.43c6.99,0,11.17,4.68,11.17,12.18v1.81h-17.86
			c0.3,4.08,2.87,6.54,6.89,6.54c4.03,0,5.79-1.96,6.69-4.28l4.38,1.71c-1.61,3.67-4.98,6.59-11.07,6.59
			C482.61,189.49,478.09,184.66,478.09,177.36z M495.8,175.2c-0.2-4.07-2.47-6.24-6.19-6.24c-3.57,0-6.19,2.36-6.69,6.24H495.8z"/>
		<path class="st0" d="M505.71,156.28h5.33v5.23h-5.33V156.28z M505.86,165.34h4.98v23.75h-4.98V165.34z"/>
		<path class="st0" d="M515.77,177.16c0-7.09,4.83-12.23,11.77-12.23c5.58,0,9.11,3.02,10.57,7.65l-4.73,1.46
			c-0.8-3.02-2.52-4.93-5.94-4.93c-4.13,0-6.69,3.27-6.69,8v0.2c0,4.68,2.41,8,6.54,8c3.83,0,5.48-1.96,6.29-5.18l4.73,1.46
			c-1.56,4.83-5.13,7.9-10.92,7.9C520.3,189.49,515.77,184.41,515.77,177.16z"/>
		<path class="st0" d="M542.64,165.34h4.93v4.48c1.26-3.17,3.67-4.98,7.3-4.98c5.13,0,8.25,3.47,8.25,9.81v14.44h-4.98V174.9
			c0-3.72-1.56-5.69-4.78-5.69c-3.67,0-5.79,3.07-5.79,8.5v11.37h-4.93V165.34z"/>
		<path class="st0" d="M567.59,177.36c0-7.35,4.88-12.43,11.62-12.43c6.99,0,11.17,4.68,11.17,12.18v1.81h-17.86
			c0.3,4.08,2.87,6.54,6.89,6.54c4.03,0,5.79-1.96,6.69-4.28l4.38,1.71c-1.61,3.67-4.98,6.59-11.07,6.59
			C572.12,189.49,567.59,184.66,567.59,177.36z M585.3,175.2c-0.2-4.07-2.47-6.24-6.19-6.24c-3.57,0-6.19,2.36-6.69,6.24H585.3z"/>
		<path class="st0" d="M594.06,177.26c0-7.25,4.93-12.33,11.93-12.33c6.99,0,11.87,5.08,11.87,12.33c0,7.14-4.98,12.23-11.97,12.23
			C598.89,189.49,594.06,184.51,594.06,177.26z M612.87,177.42v-0.2c0-4.98-2.67-8.1-6.89-8.1c-4.23,0-6.94,3.12-6.94,8.1v0.2
			c0,4.88,2.62,7.9,6.84,7.9C610.16,185.31,612.87,182.25,612.87,177.42z"/>
		<path class="st0" d="M622.74,155.18h4.98v33.91h-4.98V155.18z"/>
		<path class="st0" d="M632.7,182.85c0-5.33,3.97-6.54,9.26-7.7c4.03-0.86,6.49-1.11,6.99-2.41v-0.35c0-1.96-1.46-3.47-5.08-3.47
			c-3.52,0-5.43,1.61-5.63,4.28v0.3h-4.98c0.15-5.33,4.38-8.55,10.67-8.55c6.09,0,9.71,2.72,9.71,8.75v11.72l0.05,3.67h-4.78v-3.57
			c-1.61,2.82-4.58,4.18-8,4.18C635.82,189.69,632.7,186.92,632.7,182.85z M648.95,179.53v-2.92c-1.46,1.01-3.97,1.41-6.29,1.96
			c-2.72,0.7-4.93,1.56-4.93,4.08c0,1.96,1.46,3.27,4.07,3.27C645.28,185.92,648.55,184.16,648.95,179.53z"/>
		<path class="st0" d="M659.56,165.34h4.98v23.75h-4.98V165.34z M662.53,154.47h5.13v0.45l-5.13,6.89h-2.67L662.53,154.47z"/>
		<path class="st0" d="M669.48,177.26c0-7.25,4.93-12.33,11.93-12.33c6.99,0,11.87,5.08,11.87,12.33c0,7.14-4.98,12.23-11.97,12.23
			C674.31,189.49,669.48,184.51,669.48,177.26z M688.29,177.42v-0.2c0-4.98-2.67-8.1-6.89-8.1c-4.23,0-6.94,3.12-6.94,8.1v0.2
			c0,4.88,2.62,7.9,6.84,7.9C685.58,185.31,688.29,182.25,688.29,177.42z"/>
		<path class="st0" d="M696.8,177.16c0-7.09,4.83-12.23,11.77-12.23c5.58,0,9.11,3.02,10.57,7.65l-4.73,1.46
			c-0.8-3.02-2.52-4.93-5.94-4.93c-4.13,0-6.69,3.27-6.69,8v0.2c0,4.68,2.41,8,6.54,8c3.83,0,5.48-1.96,6.29-5.18l4.73,1.46
			c-1.56,4.83-5.13,7.9-10.92,7.9C701.32,189.49,696.8,184.41,696.8,177.16z"/>
		<path class="st0" d="M723.66,155.18h4.83v14.84c1.21-3.27,3.57-5.08,7.24-5.08c5.13,0,8.25,3.37,8.25,9.71v14.44h-4.98V174.9
			c0-3.72-1.56-5.69-4.78-5.69c-3.67,0-5.74,3.07-5.74,8.5v11.37h-4.83V155.18z"/>
		<path class="st0" d="M750.93,183.15v-13.58h-3.77v-4.23h3.77v-4.63l4.78-2.97v7.6h5.13v4.23h-5.13v12.98
			c0,1.51,0.6,2.22,2.11,2.22h2.82v4.33h-4.23C752.09,188.89,750.98,186.92,750.93,183.15z"/>
		<path class="st0" d="M764.22,182.85c0-5.33,3.97-6.54,9.26-7.7c4.03-0.86,6.49-1.11,6.99-2.41v-0.35c0-1.96-1.46-3.47-5.08-3.47
			c-3.52,0-5.43,1.61-5.63,4.28v0.3h-4.98c0.15-5.33,4.38-8.55,10.67-8.55c6.09,0,9.71,2.72,9.71,8.75v11.72l0.05,3.67h-4.78v-3.57
			c-1.61,2.82-4.58,4.18-8,4.18C767.34,189.69,764.22,186.92,764.22,182.85z M780.47,179.53v-2.92c-1.46,1.01-3.97,1.41-6.29,1.96
			c-2.72,0.7-4.93,1.56-4.93,4.08c0,1.96,1.46,3.27,4.07,3.27C776.79,185.92,780.06,184.16,780.47,179.53z"/>
		<path class="st0" d="M454.64,238.99c0-5.33,3.97-6.54,9.26-7.7c4.03-0.86,6.49-1.11,6.99-2.41v-0.35c0-1.96-1.46-3.47-5.08-3.47
			c-3.52,0-5.43,1.61-5.63,4.28v0.3h-4.98c0.15-5.33,4.38-8.55,10.67-8.55c6.09,0,9.71,2.72,9.71,8.75v11.72l0.05,3.67h-4.78v-3.57
			c-1.61,2.82-4.58,4.18-8,4.18C457.76,245.83,454.64,243.06,454.64,238.99z M470.89,235.67v-2.92c-1.46,1.01-3.97,1.41-6.29,1.96
			c-2.72,0.7-4.93,1.56-4.93,4.08c0,1.96,1.46,3.27,4.07,3.27C467.22,242.06,470.49,240.3,470.89,235.67z"/>
		<path class="st0" d="M481.51,221.48h4.93v4.48c1.26-3.17,3.67-4.98,7.3-4.98c5.13,0,8.25,3.47,8.25,9.81v14.44H497v-14.19
			c0-3.72-1.56-5.69-4.78-5.69c-3.67,0-5.79,3.07-5.79,8.5v11.37h-4.93V221.48z"/>
		<path class="st0" d="M528.75,211.82h5.89l12.23,33.41h-5.33l-3.47-9.71h-13.08l-3.62,9.71h-5.18L528.75,211.82z M536.5,231.09
			l-4.93-13.79l-5.08,13.79H536.5z"/>
		<path class="st0" d="M550.79,239.29v-13.58h-3.77v-4.23h3.77v-4.63l4.78-2.97v7.6h5.13v4.23h-5.13v12.98
			c0,1.51,0.6,2.22,2.11,2.22h2.82v4.33h-4.23C551.95,245.03,550.84,243.06,550.79,239.29z"/>
		<path class="st0" d="M565.63,211.32h4.98v33.91h-4.98V211.32z"/>
		<path class="st0" d="M575.59,238.99c0-5.33,3.97-6.54,9.26-7.7c4.03-0.86,6.49-1.11,6.99-2.41v-0.35c0-1.96-1.46-3.47-5.08-3.47
			c-3.52,0-5.43,1.61-5.63,4.28v0.3h-4.98c0.15-5.33,4.38-8.55,10.67-8.55c6.09,0,9.71,2.72,9.71,8.75v11.72l0.05,3.67h-4.78v-3.57
			c-1.61,2.82-4.58,4.18-8,4.18C578.71,245.83,575.59,243.06,575.59,238.99z M591.84,235.67v-2.92c-1.46,1.01-3.97,1.41-6.29,1.96
			c-2.72,0.7-4.93,1.56-4.93,4.08c0,1.96,1.46,3.27,4.07,3.27C588.17,242.06,591.44,240.3,591.84,235.67z"/>
		<path class="st0" d="M602.46,221.48h4.93v4.48c1.26-3.17,3.67-4.98,7.3-4.98c5.13,0,8.25,3.47,8.25,9.81v14.44h-4.98v-14.19
			c0-3.72-1.56-5.69-4.78-5.69c-3.67,0-5.79,3.07-5.79,8.5v11.37h-4.93V221.48z"/>
		<path class="st0" d="M629.88,239.29v-13.58h-3.77v-4.23h3.77v-4.63l4.78-2.97v7.6h5.13v4.23h-5.13v12.98
			c0,1.51,0.6,2.22,2.11,2.22h2.82v4.33h-4.23C631.04,245.03,629.93,243.06,629.88,239.29z"/>
		<path class="st0" d="M643.16,238.99c0-5.33,3.97-6.54,9.26-7.7c4.03-0.86,6.49-1.11,6.99-2.41v-0.35c0-1.96-1.46-3.47-5.08-3.47
			c-3.52,0-5.43,1.61-5.63,4.28v0.3h-4.98c0.15-5.33,4.38-8.55,10.67-8.55c6.09,0,9.71,2.72,9.71,8.75v11.72l0.05,3.67h-4.78v-3.57
			c-1.61,2.82-4.58,4.18-8,4.18C646.28,245.83,643.16,243.06,643.16,238.99z M659.41,235.67v-2.92c-1.46,1.01-3.97,1.41-6.29,1.96
			c-2.72,0.7-4.93,1.56-4.93,4.08c0,1.96,1.46,3.27,4.08,3.27C655.74,242.06,659.01,240.3,659.41,235.67z"/>
		<path class="st0" d="M669.88,212.42h5.33v5.23h-5.33V212.42z M670.03,221.48h4.98v23.75h-4.98V221.48z"/>
		<path class="st0" d="M681.2,245.63h4.93c0,3.67,1.56,5.18,5.74,5.18c4.78,0,6.64-1.81,6.64-6.44v-3.57
			c-1.66,2.52-4.43,3.92-7.85,3.92c-6.44,0-10.72-4.63-10.72-11.72v-0.05c0-7.19,4.28-11.97,10.72-11.97c3.32,0,5.99,1.41,7.65,3.78
			v-3.27h4.98v21.79c0,8-3.52,11.62-11.27,11.62C684.72,254.89,681.2,251.87,681.2,245.63z M698.56,232.95v-0.4
			c0-4.53-2.52-7.4-6.69-7.4c-4.18,0-6.74,2.92-6.74,7.6v0.4c0,4.63,2.47,7.4,6.74,7.4C695.94,240.55,698.56,237.53,698.56,232.95z"
			/>
		<path class="st0" d="M709.48,211.32h4.83v14.84c1.21-3.27,3.57-5.08,7.24-5.08c5.13,0,8.25,3.37,8.25,9.71v14.44h-4.98v-14.19
			c0-3.72-1.56-5.69-4.78-5.69c-3.67,0-5.74,3.07-5.74,8.5v11.37h-4.83V211.32z"/>
		<path class="st0" d="M466.67,324.09h5.89l12.23,33.41h-5.33l-3.47-9.71h-13.08l-3.62,9.71h-5.18L466.67,324.09z M474.41,343.37
			l-4.93-13.79l-5.08,13.79H474.41z"/>
		<path class="st0" d="M488.7,351.57v-13.58h-3.77v-4.23h3.77v-4.63l4.78-2.97v7.6h5.13v4.23h-5.13v12.98c0,1.51,0.6,2.22,2.11,2.22
			h2.82v4.33h-4.23C489.86,357.3,488.75,355.34,488.7,351.57z"/>
		<path class="st0" d="M503.55,323.59h4.98v33.91h-4.98V323.59z"/>
		<path class="st0" d="M513.51,351.26c0-5.33,3.97-6.54,9.26-7.7c4.03-0.86,6.49-1.11,6.99-2.41v-0.35c0-1.96-1.46-3.47-5.08-3.47
			c-3.52,0-5.43,1.61-5.63,4.28v0.3h-4.98c0.15-5.33,4.38-8.55,10.67-8.55c6.09,0,9.71,2.72,9.71,8.75v11.72l0.05,3.67h-4.78v-3.57
			c-1.61,2.82-4.58,4.18-8,4.18C516.63,358.11,513.51,355.34,513.51,351.26z M529.76,347.94v-2.92c-1.46,1.01-3.97,1.41-6.29,1.96
			c-2.72,0.7-4.93,1.56-4.93,4.08c0,1.96,1.46,3.27,4.07,3.27C526.09,354.33,529.35,352.57,529.76,347.94z"/>
		<path class="st0" d="M540.37,333.75h4.93v4.48c1.26-3.17,3.67-4.98,7.3-4.98c5.13,0,8.25,3.47,8.25,9.81v14.44h-4.98v-14.19
			c0-3.72-1.56-5.69-4.78-5.69c-3.67,0-5.79,3.07-5.79,8.5v11.37h-4.93V333.75z"/>
		<path class="st0" d="M567.79,351.57v-13.58h-3.77v-4.23h3.77v-4.63l4.78-2.97v7.6h5.13v4.23h-5.13v12.98
			c0,1.51,0.6,2.22,2.11,2.22h2.82v4.33h-4.23C568.95,357.3,567.84,355.34,567.79,351.57z"/>
		<path class="st0" d="M582.49,324.7h5.33v5.23h-5.33V324.7z M582.64,333.75h4.98v23.75h-4.98V333.75z"/>
		<path class="st0" d="M592.55,345.58c0-7.09,4.83-12.23,11.77-12.23c5.58,0,9.11,3.02,10.57,7.65l-4.73,1.46
			c-0.8-3.02-2.52-4.93-5.94-4.93c-4.13,0-6.69,3.27-6.69,8v0.2c0,4.68,2.41,8,6.54,8c3.83,0,5.48-1.96,6.29-5.18l4.73,1.46
			c-1.56,4.83-5.13,7.9-10.92,7.9C597.07,357.91,592.55,352.82,592.55,345.58z"/>
		<path class="st0" d="M464.95,384.71h-10.62v-4.48h26.31v4.48h-10.67v28.93h-5.03V384.71z"/>
		<path class="st0" d="M478.09,401.92c0-7.35,4.88-12.43,11.62-12.43c6.99,0,11.17,4.68,11.17,12.18v1.81h-17.86
			c0.3,4.08,2.87,6.54,6.89,6.54c4.03,0,5.79-1.96,6.69-4.28l4.38,1.71c-1.61,3.67-4.98,6.59-11.07,6.59
			C482.61,414.05,478.09,409.22,478.09,401.92z M495.8,399.76c-0.2-4.07-2.47-6.24-6.19-6.24c-3.57,0-6.19,2.37-6.69,6.24H495.8z"/>
		<path class="st0" d="M504.6,401.72c0-7.09,4.83-12.23,11.77-12.23c5.58,0,9.11,3.02,10.57,7.65l-4.73,1.46
			c-0.8-3.02-2.52-4.93-5.94-4.93c-4.13,0-6.69,3.27-6.69,8v0.2c0,4.68,2.41,8,6.54,8c3.83,0,5.48-1.96,6.29-5.18l4.73,1.46
			c-1.56,4.83-5.13,7.9-10.92,7.9C509.13,414.05,504.6,408.96,504.6,401.72z"/>
		<path class="st0" d="M531.47,379.73h4.83v14.84c1.21-3.27,3.57-5.08,7.24-5.08c5.13,0,8.25,3.37,8.25,9.71v14.44h-4.98v-14.19
			c0-3.72-1.56-5.69-4.78-5.69c-3.67,0-5.74,3.07-5.74,8.5v11.37h-4.83V379.73z"/>
		<path class="st0" d="M557.63,389.89h4.93v4.48c1.26-3.17,3.67-4.98,7.3-4.98c5.13,0,8.25,3.47,8.25,9.81v14.44h-4.98v-14.19
			c0-3.72-1.56-5.69-4.78-5.69c-3.67,0-5.79,3.07-5.79,8.5v11.37h-4.93V389.89z"/>
		<path class="st0" d="M582.59,401.82c0-7.25,4.93-12.33,11.93-12.33c6.99,0,11.87,5.08,11.87,12.33c0,7.14-4.98,12.23-11.97,12.23
			C587.42,414.05,582.59,409.06,582.59,401.82z M601.4,401.97v-0.2c0-4.98-2.67-8.1-6.89-8.1c-4.23,0-6.94,3.12-6.94,8.1v0.2
			c0,4.88,2.62,7.9,6.84,7.9C598.69,409.87,601.4,406.8,601.4,401.97z"/>
		<path class="st0" d="M611.26,379.73h4.98v33.91h-4.98V379.73z"/>
		<path class="st0" d="M621.13,401.82c0-7.25,4.93-12.33,11.93-12.33c6.99,0,11.87,5.08,11.87,12.33c0,7.14-4.98,12.23-11.97,12.23
			C625.96,414.05,621.13,409.06,621.13,401.82z M639.94,401.97v-0.2c0-4.98-2.67-8.1-6.89-8.1c-4.23,0-6.94,3.12-6.94,8.1v0.2
			c0,4.88,2.62,7.9,6.84,7.9C637.23,409.87,639.94,406.8,639.94,401.97z"/>
		<path class="st0" d="M649.7,414.05h4.93c0,3.67,1.56,5.18,5.74,5.18c4.78,0,6.64-1.81,6.64-6.44v-3.57
			c-1.66,2.52-4.43,3.92-7.85,3.92c-6.44,0-10.72-4.63-10.72-11.72v-0.05c0-7.19,4.28-11.97,10.72-11.97c3.32,0,5.99,1.41,7.65,3.78
			v-3.27h4.98v21.79c0,8-3.52,11.62-11.27,11.62C653.23,423.3,649.7,420.28,649.7,414.05z M667.06,401.37v-0.4
			c0-4.53-2.52-7.4-6.69-7.4c-4.18,0-6.74,2.92-6.74,7.6v0.4c0,4.63,2.47,7.4,6.74,7.4C664.44,408.96,667.06,405.95,667.06,401.37z"
			/>
		<path class="st0" d="M677.83,380.84h5.33v5.23h-5.33V380.84z M677.98,389.89h4.98v23.75h-4.98V389.89z"/>
		<path class="st0" d="M687.89,401.72c0-7.09,4.83-12.23,11.77-12.23c5.58,0,9.11,3.02,10.57,7.65l-4.73,1.46
			c-0.8-3.02-2.52-4.93-5.94-4.93c-4.13,0-6.69,3.27-6.69,8v0.2c0,4.68,2.41,8,6.54,8c3.83,0,5.48-1.96,6.29-5.18l4.73,1.46
			c-1.56,4.83-5.13,7.9-10.92,7.9C692.42,414.05,687.89,408.96,687.89,401.72z"/>
		<path class="st0" d="M713.6,407.4c0-5.33,3.97-6.54,9.26-7.7c4.03-0.86,6.49-1.11,6.99-2.41v-0.35c0-1.96-1.46-3.47-5.08-3.47
			c-3.52,0-5.43,1.61-5.63,4.28v0.3h-4.98c0.15-5.33,4.38-8.55,10.67-8.55c6.09,0,9.71,2.72,9.71,8.75v11.72l0.05,3.67h-4.78v-3.57
			c-1.61,2.82-4.58,4.18-8,4.18C716.72,414.25,713.6,411.48,713.6,407.4z M729.85,404.08v-2.92c-1.46,1.01-3.97,1.41-6.29,1.96
			c-2.72,0.7-4.93,1.56-4.93,4.08c0,1.96,1.46,3.27,4.07,3.27C726.18,410.47,729.45,408.71,729.85,404.08z"/>
		<path class="st0" d="M740.47,379.73h4.98v33.91h-4.98V379.73z"/>
		<path class="st0" d="M455.9,456.65v-20.28h5.03v20.18c0,6.34,2.67,9.36,8.4,9.36c5.79,0,8.25-2.92,8.25-9.31v-20.23h4.98v20.23
			c0,9.31-4.98,13.79-13.18,13.79C460.53,470.39,455.9,465.61,455.9,456.65z"/>
		<path class="st0" d="M488.55,446.03h4.93v4.48c1.26-3.17,3.67-4.98,7.3-4.98c5.13,0,8.25,3.47,8.25,9.81v14.44h-4.98v-14.19
			c0-3.72-1.56-5.69-4.78-5.69c-3.67,0-5.79,3.07-5.79,8.5v11.37h-4.93V446.03z"/>
		<path class="st0" d="M514.72,436.98h5.33v5.23h-5.33V436.98z M514.87,446.03h4.98v23.75h-4.98V446.03z"/>
		<path class="st0" d="M523.57,446.03h5.13l6.29,17.86l5.99-17.86h5.18l-8.86,23.8h-4.58L523.57,446.03z"/>
		<path class="st0" d="M547.27,458.06c0-7.35,4.88-12.43,11.62-12.43c6.99,0,11.17,4.68,11.17,12.18v1.81H552.2
			c0.3,4.08,2.87,6.54,6.89,6.54c4.03,0,5.79-1.96,6.69-4.28l4.38,1.71c-1.61,3.67-4.98,6.59-11.07,6.59
			C551.79,470.18,547.27,465.35,547.27,458.06z M564.98,455.9c-0.2-4.07-2.47-6.24-6.19-6.24c-3.57,0-6.19,2.37-6.69,6.24H564.98z"
			/>
		<path class="st0" d="M575.04,446.03h4.93v4.38c0.7-2.77,2.57-4.58,6.89-4.58h0.75v4.83h-2.26c-4.23,0-5.38,2.11-5.38,6.94v12.18
			h-4.93V446.03z"/>
		<path class="st0" d="M590.08,465.46l4.28-2.26c1.46,2.11,3.92,3.17,6.44,3.17c2.67,0,4.28-1.21,4.28-3.17
			c0-2.06-2.77-2.52-6.49-3.32c-4.33-0.91-8.2-2.42-8.2-7c0-4.18,3.92-7.35,8.96-7.35c4.48,0,7.95,2.01,10.26,5.08l-4.28,2.11
			c-1.36-2.06-3.52-3.17-5.99-3.17c-2.57,0-4.23,1.21-4.23,3.02c0,1.96,1.61,2.31,5.94,3.17c4.33,0.85,8.8,2.41,8.8,7.09
			c0,4.38-3.87,7.6-9.26,7.6C596.02,470.44,592.25,468.48,590.08,465.46z"/>
		<path class="st0" d="M614.28,436.98h5.33v5.23h-5.33V436.98z M614.44,446.03h4.98v23.75h-4.98V446.03z"/>
		<path class="st0" d="M627.57,463.85v-13.58h-3.77v-4.23h3.77v-4.63l4.78-2.97v7.6h5.13v4.23h-5.13v12.98
			c0,1.51,0.6,2.22,2.11,2.22h2.82v4.33h-4.23C628.72,469.58,627.62,467.62,627.57,463.85z"/>
		<path class="st0" d="M641.1,474.86h2.26c3.27,0,4.03-0.7,5.89-5.53l-9.16-23.3h5.18l6.34,17.71l5.79-17.71h5.23l-9.11,25.46
			c-2.16,5.63-4.23,7.85-9.91,7.85h-2.52V474.86z"/>
	</g>
</g>
</svg>
